<?xml version="1.0" encoding="utf-8"?>
<!-- Generator: Adobe Illustrator 26.0.1, SVG Export Plug-In . SVG Version: 6.00 Build 0)  -->
<svg version="1.1" id="Layer_1" xmlns="http://www.w3.org/2000/svg" xmlns:xlink="http://www.w3.org/1999/xlink" x="0px" y="0px"
	 viewBox="0 0 595.3 632.9" style="enable-background:new 0 0 595.3 632.9;" xml:space="preserve">
<style type="text/css">
	.st0{fill-rule:evenodd;clip-rule:evenodd;fill:#FFFFFF;}
	.st1{fill-rule:evenodd;clip-rule:evenodd;fill:#E94E20;}
	.st2{fill:#FFFFFF;}
	.st3{fill:#E94E20;}
</style>
<path class="st0" d="M297.7,43.8c3.4,3.4,6.9,6.7,10.1,10.4c1,1.1,1.4,2.6,1.2,4c-11.8,88.1-23.7,176.2-35.6,264.3
	c-0.4,2.6-0.8,5.2-1.3,8.7l-3.7-3.7c-41.2-41.2-82.5-82.5-123.7-123.7c-1.2-1.2-2.4-2.3-3.6-3.4c11.9-11.9,23.9-23.9,35.8-35.8
	l1.3,1.3c9.5,9.5,9.5,24.8,0,34.2l75.4,75.4c7.8-58.1,15.6-115.6,23.4-173.1c-0.4-0.2-0.4-0.2-0.8-0.4l-61.4,61.4
	c-10.1-10.1-10.1-26.5,0-36.6L297.7,43.8z"/>
<path class="st1" d="M426.1,228.1c-9.8,9.8-25.6,9.8-35.3,0c1.2-1.2,2.1-2.1,3.1-3.1c7.1-7.1,14.2-14.4,21.5-21.3
	c2.6-2.5,2.7-4,0.1-6.7c-20.9-20.7-41.6-41.5-62.4-62.2c-5.4-5.4-10.8-10.8-17.2-17.2c-8.6,63.9-17.1,126.7-25.6,189.6
	c0.4,0.2,0.4,0.2,0.9,0.4l39.7-39.7c9.8-9.8,25.7-9.8,35.5,0l-88.7,88.7c-1.2-1.2-11.6-12.6-16.7-17.8c0,0,24.4-185.3,36-270.8
	c0.1-1.1,0.4-2.2,0.7-3.8c45.6,45.6,90.8,90.8,136.2,136.2L426.1,228.1z"/>
<path class="st2" d="M105,401.7c9.8,5.2,17.5,12.5,22.8,22c5.4,9.4,8.1,20.3,8.1,32.6c0,12.2-2.7,23.1-8.1,32.5
	c-5.4,9.5-13.1,16.8-22.9,22c-9.9,5.2-21.4,7.8-34.4,7.8H23.7V393.9h46.8C83.6,393.9,95.2,396.5,105,401.7 M95.4,483
	c6.4-6.3,9.6-15.2,9.6-26.7s-3.2-20.5-9.6-26.9s-15.4-9.6-26.9-9.6H54.1v72.6h14.4C80,492.4,89,489.2,95.4,483"/>
<path class="st2" d="M183.4,418.2v25.2h40.7c0,13-10.5,23.5-23.5,23.5h-17.2v27.4h46.1c0,13.5-10.9,24.4-24.4,24.4H153V393.9h76.5
	c0,13.5-10.9,24.4-24.4,24.4L183.4,418.2L183.4,418.2z"/>
<path class="st2" d="M279.6,495.2h39.8c0,13-10.5,23.5-23.5,23.5h-46.8V393.9c16.8,0,30.4,13.6,30.4,30.4L279.6,495.2L279.6,495.2z"
	/>
<path class="st2" d="M333.5,393.9c16.8,0,30.4,13.6,30.4,30.4v44.3c0,7.5,1.8,13.2,5.5,17.2c3.7,4,9.1,6,16.2,6c7.1,0,12.6-2,16.4-6
	c3.8-4,5.7-9.8,5.7-17.2v-74.7c16.8,0,30.4,13.6,30.4,30.4v44.1c0,11.1-2.4,20.6-7.1,28.3c-4.7,7.7-11.1,13.5-19.1,17.4
	c-8,3.9-16.9,5.9-26.8,5.9c-9.8,0-18.6-1.9-26.4-5.8c-7.8-3.9-13.9-9.7-18.4-17.4c-4.5-7.8-6.8-17.2-6.8-28.4L333.5,393.9
	L333.5,393.9z"/>
<path class="st2" d="M516.3,489.2l-5.8-8.8l-5,8.5c-10.8,18.4-30.6,29.8-52,29.8l40-63.5l-40.9-61.4c22.1,0,42.8,11.1,55,29.5
	l5.5,8.2l4.6-7.9c10.8-18.4,30.5-29.8,51.9-29.8l-39.7,63l41.3,61.9l0,0C549.2,518.7,528.5,507.6,516.3,489.2"/>
<path class="st3" d="M98.2,559.2c1.8-3,4.1-5.3,7.2-7s6.3-2.5,9.9-2.5c4.1,0,7.8,1,10.9,3c3.2,2,5.5,4.9,7,8.6h-7.6
	c-1-2-2.4-3.5-4.2-4.5c-1.8-1-3.8-1.5-6.2-1.5c-2.6,0-4.8,0.6-6.8,1.7c-2,1.2-3.6,2.8-4.7,4.9c-1.1,2.1-1.7,4.6-1.7,7.5
	c0,2.8,0.6,5.3,1.7,7.5c1.1,2.1,2.7,3.8,4.7,5c2,1.2,4.3,1.7,6.8,1.7c2.3,0,4.4-0.5,6.2-1.5c1.8-1,3.2-2.5,4.2-4.5h7.6
	c-1.4,3.7-3.8,6.5-6.9,8.5c-3.2,2-6.8,3-10.9,3c-3.6,0-6.9-0.8-9.9-2.5c-3-1.7-5.4-4-7.1-7s-2.6-6.4-2.6-10.1
	C95.6,565.6,96.5,562.2,98.2,559.2"/>
<path class="st3" d="M171.6,588.7l-8.9-15.4h-4.8v15.4h-6.3v-38.5h13.3c2.9,0,5.5,0.5,7.5,1.5c2.1,1,3.6,2.4,4.6,4.2
	c1,1.7,1.5,3.7,1.5,5.8c0,2.5-0.7,4.8-2.2,6.8c-1.5,2-3.7,3.4-6.7,4.2l9.5,16L171.6,588.7L171.6,588.7L171.6,588.7z M157.9,568.2h7
	c2.4,0,4.1-0.6,5.3-1.8s1.8-2.8,1.8-4.8c0-2-0.6-3.5-1.8-4.7c-1.2-1.1-3-1.7-5.4-1.7h-7L157.9,568.2L157.9,568.2z"/>
<polygon class="st3" points="204,555.3 204,566.6 217.3,566.6 217.3,571.7 204,571.7 204,583.5 219,583.5 219,588.7 197.7,588.7 
	197.7,550.1 219,550.1 219,555.3 "/>
<path class="st3" d="M261,580.8h-16.1l-2.8,7.9h-6.6l13.8-38.6h7.3l13.8,38.6h-6.6L261,580.8z M259.2,575.7l-6.3-17.9l-6.3,17.9
	H259.2z"/>
<polygon class="st3" points="312.4,550.2 312.4,555.3 302.1,555.3 302.1,588.7 295.8,588.7 295.8,555.3 285.5,555.3 285.5,550.2 "/>
<rect x="329.8" y="550.2" class="st3" width="6.3" height="38.5"/>
<path class="st3" d="M363.2,586.5c-3-1.7-5.4-4-7.1-7c-1.8-3-2.6-6.4-2.6-10.2s0.9-7.2,2.6-10.1s4.1-5.3,7.1-7
	c3-1.7,6.3-2.5,9.9-2.5c3.6,0,6.9,0.8,10,2.5c3,1.7,5.4,4,7.1,7c1.7,3,2.6,6.4,2.6,10.1s-0.9,7.2-2.6,10.2c-1.7,3-4.1,5.4-7.1,7
	s-6.3,2.5-10,2.5C369.5,589.1,366.2,588.2,363.2,586.5 M379.9,581.8c2-1.2,3.5-2.8,4.7-5c1.1-2.2,1.7-4.7,1.7-7.5
	c0-2.8-0.6-5.3-1.7-7.5c-1.1-2.2-2.7-3.8-4.7-4.9s-4.3-1.7-6.8-1.7c-2.5,0-4.8,0.6-6.8,1.7c-2,1.2-3.6,2.8-4.7,4.9
	c-1.1,2.1-1.7,4.6-1.7,7.5s0.6,5.3,1.7,7.5c1.1,2.2,2.7,3.8,4.7,5c2,1.2,4.3,1.7,6.8,1.7C375.6,583.6,377.9,583,379.9,581.8"/>
<polygon class="st3" points="441.7,588.7 435.4,588.7 416.4,559.9 416.4,588.7 410,588.7 410,550.1 416.4,550.1 435.4,578.8 
	435.4,550.1 441.7,550.1 "/>
<path class="st3" d="M466.8,587.7c-2.1-0.9-3.7-2.2-4.9-3.8c-1.2-1.7-1.8-3.6-1.8-5.8h6.8c0.1,1.7,0.8,3,2,4.1
	c1.2,1.1,2.8,1.6,4.9,1.6c2.2,0,3.9-0.5,5.1-1.6c1.2-1,1.8-2.4,1.8-4.1c0-1.3-0.4-2.3-1.1-3.2c-0.8-0.8-1.7-1.4-2.8-1.9
	c-1.1-0.4-2.7-0.9-4.7-1.4c-2.5-0.7-4.6-1.3-6.1-2c-1.6-0.7-2.9-1.7-4-3.2c-1.1-1.4-1.7-3.4-1.7-5.8c0-2.2,0.5-4.2,1.7-5.8
	c1.1-1.7,2.7-2.9,4.6-3.8c2-0.9,4.3-1.3,6.9-1.3c3.7,0,6.8,0.9,9.2,2.8c2.4,1.9,3.7,4.4,4,7.7h-7c-0.1-1.4-0.8-2.6-2-3.6
	c-1.2-1-2.8-1.5-4.8-1.5c-1.8,0-3.3,0.5-4.4,1.4c-1.1,0.9-1.7,2.2-1.7,4c0,1.2,0.4,2.2,1.1,2.9c0.7,0.8,1.6,1.3,2.8,1.8
	c1.1,0.4,2.6,0.9,4.5,1.4c2.5,0.7,4.6,1.4,6.2,2.1c1.6,0.7,3,1.8,4.1,3.2c1.1,1.5,1.7,3.4,1.7,5.8c0,2-0.5,3.8-1.6,5.5
	s-2.6,3.1-4.6,4.2s-4.4,1.6-7.1,1.6C471.2,589.1,468.8,588.6,466.8,587.7"/>
</svg>
