<?xml version="1.0" encoding="utf-8"?>
<!-- Generator: Adobe Illustrator 26.0.1, SVG Export Plug-In . SVG Version: 6.00 Build 0)  -->
<svg version="1.1" id="Layer_1" xmlns="http://www.w3.org/2000/svg" xmlns:xlink="http://www.w3.org/1999/xlink" x="0px" y="0px"
	 viewBox="0 0 50 46" style="enable-background:new 0 0 50 46;" xml:space="preserve">
<style type="text/css">
	.st0{fill-rule:evenodd;clip-rule:evenodd;fill:#FFFFFF;}
	.st1{fill-rule:evenodd;clip-rule:evenodd;fill:#E94E20;}
</style>
<path class="st0" d="M25,0c0.5,0.5,1,1,1.5,1.5c0.1,0.2,0.2,0.4,0.2,0.6C25,15.1,23.2,28,21.5,41c-0.1,0.4-0.1,0.8-0.2,1.3l-0.5-0.5
	C14.7,35.7,8.6,29.6,2.5,23.5C2.3,23.4,2.2,23.2,2,23c1.8-1.8,3.5-3.5,5.3-5.3L7.5,18c1.4,1.4,1.4,3.6,0,5l11.1,11.1
	c1.1-8.5,2.3-17,3.4-25.5c-0.1,0-0.1,0-0.1-0.1l-9,9c-1.5-1.5-1.5-3.9,0-5.4L25,0z"/>
<path class="st1" d="M43.9,27.1c-1.4,1.4-3.8,1.4-5.2,0c0.2-0.2,0.3-0.3,0.5-0.5c1-1,2.1-2.1,3.2-3.1c0.4-0.4,0.4-0.6,0-1
	c-3.1-3-6.1-6.1-9.2-9.2c-0.8-0.8-1.6-1.6-2.5-2.5c-1.3,9.4-2.5,18.6-3.8,27.9c0.1,0,0.1,0,0.1,0.1l5.8-5.8c1.4-1.4,3.8-1.4,5.2,0
	L25,46c-0.2-0.2-1.7-1.9-2.5-2.6c0,0,3.6-27.3,5.3-39.8c0-0.2,0.1-0.3,0.1-0.6c6.7,6.7,13.4,13.4,20,20L43.9,27.1z"/>
</svg>
