<?xml version="1.0" encoding="utf-8"?>
<!-- Generator: Adobe Illustrator 26.0.1, SVG Export Plug-In . SVG Version: 6.00 Build 0)  -->
<svg version="1.1" id="Layer_1" xmlns="http://www.w3.org/2000/svg" xmlns:xlink="http://www.w3.org/1999/xlink" x="0px" y="0px"
	 viewBox="0 0 547.6 195.2" style="enable-background:new 0 0 547.6 195.2;" xml:space="preserve">
<style type="text/css">
	.st0{fill:#2B2523;}
	.st1{fill:#E94E20;}
</style>
<g>
	<path class="st0" d="M81.3,7.8c9.8,5.2,17.5,12.5,22.8,22c5.4,9.4,8.1,20.3,8.1,32.6c0,12.2-2.7,23.1-8.1,32.5
		c-5.4,9.5-13.1,16.8-22.9,22c-9.9,5.2-21.4,7.8-34.4,7.8H0V0h46.8C59.9,0,71.4,2.6,81.3,7.8 M71.7,89.1c6.4-6.3,9.6-15.2,9.6-26.7
		S78.1,42,71.7,35.6S56.3,26,44.8,26H30.4v72.6h14.4C56.3,98.5,65.3,95.4,71.7,89.1"/>
	<path class="st0" d="M159.7,24.4v25.2h40.7c0,13-10.5,23.5-23.5,23.5h-17.2v27.4h46.1c0,13.5-10.9,24.4-24.4,24.4h-52.1V0h76.5
		c0,13.5-10.9,24.4-24.4,24.4L159.7,24.4L159.7,24.4z"/>
	<path class="st0" d="M255.9,101.4h39.8c0,13-10.5,23.5-23.5,23.5h-46.8V0c16.8,0,30.4,13.6,30.4,30.4L255.9,101.4L255.9,101.4z"/>
	<path class="st0" d="M309.8,0c16.8,0,30.4,13.6,30.4,30.4v44.3c0,7.5,1.8,13.2,5.5,17.2c3.7,4,9.1,6,16.2,6c7.1,0,12.6-2,16.4-6
		c3.8-4,5.7-9.8,5.7-17.2V0c16.8,0,30.4,13.6,30.4,30.4v44.1c0,11.1-2.4,20.6-7.1,28.3c-4.7,7.7-11.1,13.5-19.1,17.4
		c-8,3.9-16.9,5.9-26.8,5.9c-9.8,0-18.6-1.9-26.4-5.8c-7.8-3.9-13.9-9.7-18.4-17.4c-4.5-7.8-6.8-17.2-6.8-28.4L309.8,0L309.8,0z"/>
	<path class="st0" d="M492.6,95.4l-5.8-8.8l-5,8.5c-10.8,18.4-30.6,29.8-52,29.8l40-63.5L429,0c22.1,0,42.8,11.1,55,29.5l5.5,8.2
		l4.6-7.9C504.8,11.3,524.6,0,546,0l-39.7,63l41.3,61.9l0,0C525.5,124.8,504.8,113.8,492.6,95.4"/>
	<path class="st1" d="M74.5,165.3c1.8-3,4.1-5.3,7.2-7s6.3-2.5,9.9-2.5c4.1,0,7.8,1,10.9,3c3.2,2,5.5,4.9,7,8.6h-7.6
		c-1-2-2.4-3.5-4.2-4.5c-1.8-1-3.8-1.5-6.2-1.5c-2.6,0-4.8,0.6-6.8,1.7c-2,1.2-3.6,2.8-4.7,4.9c-1.1,2.1-1.7,4.6-1.7,7.5
		c0,2.8,0.6,5.3,1.7,7.5c1.1,2.1,2.7,3.8,4.7,5c2,1.2,4.3,1.7,6.8,1.7c2.3,0,4.4-0.5,6.2-1.5c1.8-1,3.2-2.5,4.2-4.5h7.6
		c-1.4,3.7-3.8,6.5-6.9,8.5c-3.2,2-6.8,3-10.9,3c-3.6,0-6.9-0.8-9.9-2.5c-3-1.7-5.4-4-7.1-7s-2.6-6.4-2.6-10.1
		C71.9,171.7,72.8,168.3,74.5,165.3"/>
	<path class="st1" d="M147.9,194.8l-8.9-15.4h-4.8v15.4h-6.3v-38.5h13.3c3,0,5.5,0.5,7.5,1.5c2,1,3.6,2.4,4.6,4.2
		c1,1.7,1.5,3.7,1.5,5.8c0,2.5-0.7,4.8-2.2,6.8c-1.5,2-3.7,3.4-6.7,4.2l9.5,16L147.9,194.8L147.9,194.8L147.9,194.8z M134.2,174.4h7
		c2.4,0,4.1-0.6,5.3-1.8c1.2-1.2,1.8-2.8,1.8-4.8c0-2-0.6-3.5-1.8-4.7c-1.2-1.1-3-1.7-5.4-1.7h-7V174.4L134.2,174.4z"/>
	<polygon class="st1" points="180.3,161.4 180.3,172.7 193.6,172.7 193.6,177.9 180.3,177.9 180.3,189.7 195.3,189.7 195.3,194.8 
		174,194.8 174,156.2 195.3,156.2 195.3,161.4 	"/>
	<path class="st1" d="M237.3,186.9h-16.1l-2.8,7.9h-6.6l13.8-38.6h7.3l13.8,38.6h-6.6L237.3,186.9z M235.5,181.8l-6.3-17.9
		l-6.3,17.9H235.5z"/>
	<polygon class="st1" points="288.6,156.3 288.6,161.5 278.4,161.5 278.4,194.8 272.1,194.8 272.1,161.5 261.8,161.5 261.8,156.3 	
		"/>
	<rect x="306.1" y="156.3" class="st1" width="6.3" height="38.5"/>
	<path class="st1" d="M339.5,192.7c-3-1.7-5.4-4-7.1-7c-1.8-3-2.6-6.4-2.6-10.2s0.9-7.2,2.6-10.1s4.1-5.3,7.1-7
		c3-1.7,6.3-2.5,9.9-2.5c3.6,0,6.9,0.8,10,2.5c3,1.7,5.4,4,7.1,7c1.7,3,2.6,6.4,2.6,10.1s-0.9,7.2-2.6,10.2c-1.7,3-4.1,5.4-7.1,7
		s-6.3,2.5-10,2.5C345.8,195.2,342.5,194.4,339.5,192.7 M356.2,188c2-1.2,3.5-2.8,4.7-5c1.1-2.2,1.7-4.7,1.7-7.5
		c0-2.8-0.6-5.3-1.7-7.5c-1.1-2.2-2.7-3.8-4.7-4.9s-4.3-1.7-6.8-1.7c-2.5,0-4.8,0.6-6.8,1.7c-2,1.2-3.6,2.8-4.7,4.9
		c-1.1,2.1-1.7,4.6-1.7,7.5s0.6,5.3,1.7,7.5c1.1,2.2,2.7,3.8,4.7,5c2,1.2,4.3,1.7,6.8,1.7C351.9,189.7,354.2,189.1,356.2,188"/>
	<polygon class="st1" points="418,194.8 411.6,194.8 392.6,166 392.6,194.8 386.3,194.8 386.3,156.2 392.6,156.2 411.6,185 
		411.6,156.2 418,156.2 	"/>
	<path class="st1" d="M443.1,193.8c-2.1-0.9-3.7-2.2-4.9-3.8c-1.2-1.7-1.8-3.6-1.8-5.8h6.8c0.1,1.7,0.8,3,2,4.1
		c1.2,1.1,2.8,1.6,4.9,1.6c2.2,0,3.9-0.5,5.1-1.6c1.2-1,1.8-2.4,1.8-4.1c0-1.3-0.4-2.3-1.1-3.2c-0.8-0.8-1.7-1.4-2.8-1.9
		c-1.1-0.4-2.7-0.9-4.7-1.4c-2.5-0.7-4.6-1.3-6.1-2c-1.6-0.7-2.9-1.7-4-3.2c-1.1-1.4-1.7-3.4-1.7-5.8c0-2.2,0.5-4.2,1.7-5.8
		c1.1-1.7,2.7-2.9,4.6-3.8c2-0.9,4.3-1.3,6.9-1.3c3.7,0,6.8,0.9,9.2,2.8c2.4,1.9,3.7,4.4,4,7.7h-7c-0.1-1.4-0.8-2.6-2-3.6
		c-1.2-1-2.8-1.5-4.8-1.5c-1.8,0-3.3,0.5-4.4,1.4c-1.1,0.9-1.7,2.2-1.7,4c0,1.2,0.4,2.2,1.1,2.9c0.7,0.8,1.6,1.3,2.8,1.8
		c1.1,0.4,2.6,0.9,4.5,1.4c2.5,0.7,4.6,1.4,6.2,2.1c1.6,0.7,3,1.8,4.1,3.2c1.1,1.5,1.7,3.4,1.7,5.8c0,2-0.5,3.8-1.6,5.5
		s-2.6,3.1-4.6,4.2s-4.4,1.6-7.1,1.6C447.5,195.2,445.1,194.7,443.1,193.8"/>
</g>
</svg>
